<mxfile host="app.diagrams.net" agent="Mozilla/5.0 (Windows NT 10.0; Win64; x64) AppleWebKit/537.36 (KHTML, like Gecko) Chrome/140.0.0.0 Safari/537.36" version="28.2.3">
  <diagram name="Page-1" id="Do8e9G8cceio7t4X5D0b">
    <mxGraphModel dx="715" dy="377" grid="1" gridSize="10" guides="1" tooltips="1" connect="1" arrows="1" fold="1" page="1" pageScale="1" pageWidth="850" pageHeight="1100" math="0" shadow="0">
      <root>
        <mxCell id="0" />
        <mxCell id="1" parent="0" />
        <mxCell id="HUjf1X7cH54oYZS5tYs9-3" value="" style="edgeStyle=orthogonalEdgeStyle;rounded=0;orthogonalLoop=1;jettySize=auto;html=1;" parent="1" source="HUjf1X7cH54oYZS5tYs9-1" target="HUjf1X7cH54oYZS5tYs9-2" edge="1">
          <mxGeometry relative="1" as="geometry" />
        </mxCell>
        <mxCell id="HUjf1X7cH54oYZS5tYs9-5" value="" style="edgeStyle=orthogonalEdgeStyle;rounded=0;orthogonalLoop=1;jettySize=auto;html=1;" parent="1" source="HUjf1X7cH54oYZS5tYs9-1" target="HUjf1X7cH54oYZS5tYs9-4" edge="1">
          <mxGeometry relative="1" as="geometry" />
        </mxCell>
        <mxCell id="HUjf1X7cH54oYZS5tYs9-7" value="" style="edgeStyle=orthogonalEdgeStyle;rounded=0;orthogonalLoop=1;jettySize=auto;html=1;" parent="1" source="HUjf1X7cH54oYZS5tYs9-1" target="HUjf1X7cH54oYZS5tYs9-6" edge="1">
          <mxGeometry relative="1" as="geometry" />
        </mxCell>
        <mxCell id="HUjf1X7cH54oYZS5tYs9-1" value="Observability" style="whiteSpace=wrap;html=1;" parent="1" vertex="1">
          <mxGeometry x="350" y="220" width="120" height="60" as="geometry" />
        </mxCell>
        <mxCell id="HUjf1X7cH54oYZS5tYs9-2" value="Logs" style="whiteSpace=wrap;html=1;" parent="1" vertex="1">
          <mxGeometry x="350" y="360" width="120" height="60" as="geometry" />
        </mxCell>
        <mxCell id="HUjf1X7cH54oYZS5tYs9-4" value="Monitoring" style="whiteSpace=wrap;html=1;" parent="1" vertex="1">
          <mxGeometry x="550" y="360" width="120" height="60" as="geometry" />
        </mxCell>
        <mxCell id="HUjf1X7cH54oYZS5tYs9-6" value="Traces" style="whiteSpace=wrap;html=1;" parent="1" vertex="1">
          <mxGeometry x="160" y="360" width="120" height="60" as="geometry" />
        </mxCell>
        <mxCell id="DL84-s0lshs8U884hXZI-1" value="&lt;b&gt;&lt;font style=&quot;font-size: 18px;&quot;&gt;Main pillars of observability&lt;/font&gt;&lt;/b&gt;" style="text;html=1;align=center;verticalAlign=middle;resizable=0;points=[];autosize=1;strokeColor=none;fillColor=none;" vertex="1" parent="1">
          <mxGeometry x="270" y="125" width="260" height="40" as="geometry" />
        </mxCell>
        <mxCell id="DL84-s0lshs8U884hXZI-2" value="" style="shape=image;verticalLabelPosition=bottom;labelBackgroundColor=default;verticalAlign=top;aspect=fixed;imageAspect=0;image=data:image/png,iVBORw0KGgoAAAANSUhEUgAAAx0AAACOCAYAAABUg2XjAAAAAXNSR0IArs4c6QAAAARnQU1BAACxjwv8YQUAAAAJcEhZcwAADsMAAA7DAcdvqGQAAD1rSURBVHhe7d13dFTV3sbx70z6JJNCSE9ISCcktAQIRZoIIigiNpqCqFcs94ro9aoUUbkgVlBUmgoiSBGlQ0KXFlAINQUCSYAA6aROMu39g+S8ZEAs11EJv89arAVn73OmcmY/Z5ejMpvNZoQQQgghhBDCStSWG4QQQgghhBDijyShQwghhBBCCGFVEjqEEEIIIYQQViWhQwghhBBCCGFVEjqEEEIIIYQQViWhQwghhBBCCGFVEjqEEEIIIYQQViWhQwghhBBCCGFVEjqEEEIIIYQQViWhQwghhBBCCGFVEjqEEEIIIYQQViWhQwghhBBCCGFVEjqEEEIIIYQQViWhQwghhBBCCGFVEjqEEEIIIYQQViWhQwghhBBCCGFVEjqEEEIIIYQQViWhQwghhBBCCGFVEjqEEEIIIYQQViWhQwghhBBCCGFVKrPZbLbcKIQQNzO9Xo/RaMRsNqNSqbCxscHW1haVStWgXlVVFUajEZVKhbOz8zXljUX96wTQarWWxQ1UVFRgNptRq9U4OzsDoNPp0Ov1qNVqNBoNKpUKvV6PTqcDwNnZGbX6z7mGVVtbq7wWlUqFWq3GxsYGGxsby6pCCCH+RiR0CCEajZqaGg4cOMDu3bvJysqirKwMrVZLWFgYnTp1omvXrg0ap8OHDyc9PR2tVsu6devQaDQNjtdYDBs2jIyMDGxsbEhJSbEsbqBv374UFRXh5eXFhg0bAJg4cSLr168nNDSUefPm4erqyqpVq3jzzTcBWLlyJc2aNaOyspIzZ86g0+lwcXEhOjra4ui/n8FgYMeOHWzbto3c3Fxqa2txdnbG29ubkJAQnnzyyb88NOp0Oo4dOwZA69atsbOzs6wihBC3rD/n0pQQQliZTqdj3rx5TJw4keXLl3Py5EmMRiMnT55kxYoVvPnmm7z//vuYTCbLXcUf5Pz588yYMYPx48czb948y+L/yeLFi5k0aRIbN24kLy8Ps9nMpUuX2Lp1K3Pnzv1bfK4FBQVMmDCB8ePHU15eblkshBC3NAkdQoibntlsZvXq1SxZsoSysjJiYmL46KOPmDt3LnPnzqV9+/aUlpayfPlyPv/8c8vdxVW+/vpr1q9fz1dffWVZ1ECfPn1Yv34969evJyAgAOp6I0pKSigsLOTy5cuWu/xuJpOJbdu2odPpSEhIYP78+cyePZuFCxfy+eefc++99/7lvRwARqORwsJCCgsLkUEEQgjRkAyvEkLc9MrLy5k+fTobNmzAwcGBSZMm0adPH6V827ZtTJkyhdLSUtq3b897772HRqNRhle5uLgwb9481q1bx4kTJ2jatCkPPvggMTExyhCZ06dPs2HDBk6cOEFFRQXu7u6EhobSvXt32rRpA3WN7vPnz7N27VrS0tKora0lICCAO+64g7Zt2+Lk5ATAgQMH2Lp1KwD9+vUjLS2NH374AbVaTefOncnJycHOzo4XXnhBeQ0lJSXMmTMHlUrFyJEjcXd3Z8eOHezfv5/z589TXV2NVqslKiqKAQMGEBQUpMyzuHp41cqVK1m6dCkZGRk0bdqUhx9+mBYtWmBrawvAxx9/TGVlJS4uLjzzzDPwM8Orjhw5ogy/qh/aNG3aNFJSUigvL8fLy4sePXoAMGjQIJKTk6moqCAkJISHHnpIeV3Hjh1j3bp1qNVqHnvsMTw9PZWyekVFRTz99NNkZWXRtWtXJkyYgFarxd7e3rIqAPPnz6ewsJCYmBiioqJYsWIF2dnZBAUFMXjwYGJiYpS6er2ezMxMNmzYwKlTpzAajURHR3PHHXcQExOjvC/1PSvbtm3j4MGDFBUV4eLiQkJCAv3792f16tVkZWWxceNGAO6++24cHR1xcHDgkUcewd7enlmzZkHd55GSksKOHTtwd3dnwoQJfPLJJ+h0Onx8fBg5ciQAJ0+e5LvvvsNsNtOtWzcSExOprq5m7ty56HQ6wsLCCA0N5dtvv6W4uJhOnTpxzz33kJ+fz9KlS8nOziYyMpLBgwcTHh6uvGYhhPgrSOgQQtz0Tp06xT//+U/y8/Np0qQJGzZsaDB3o7y8nLFjx5Kamoqfnx+TJ0+mXbt2Suiwt7fHy8uL2tpaKisrqaqqwsnJiddee40777yTmpoahgwZQm5uLs7Ozri5uVFdXU1ZWRmdOnXiww8/xGw2s3HjRt59910uX76Ms7Mzjo6OFBUVodVqGTp0qNL4XLx4MR988AEAsbGxZGdno9FosLW15cEHH+TDDz9ErVazevVqfH19AZg6dSrffvstTZs2ZeHChdjY2DB27Fhyc3NxcXEBoLS0FJ1Oh6enJ5MnTyYxMRGuCh0qlYrAwEB0Oh0VFRVUV1fj6urK+PHj6dWrF/wPczpsbGy47777MJlMDSbwA8yYMYOUlBTleW/dulWZpH7//feTnZ1N69atmT59+nVDh06n44knniAtLQ0nJyfi4uJo0aIFQUFBhIaGEhkZiaOjo1L/oYceIisri5CQEFQqFdXV1RQXF1NbW4uPjw/Tpk0jLi4Os9nMggULmDdvHjqdDnd3d2xsbCgqKsLb25sxY8Zw9913A5CSksK7777LmTNnsLW1xcPDA7PZjK2tLZMmTWLGjBmcOnUKg8EAoIQVFxcX5s+fj0ajoV+/fgB06dKFn376CVdXVzw8PJg/fz533XUXZWVlREZGsnjxYgC2b9/Ov//9b0wmE08//TSjRo2itLSU++67j/Lycpo1a0Z5eTkmk4mysjJUKhVdu3YlPz+fkpISCgoKMJlMtG7dmlmzZjV4j4QQ4s8mw6uEEDe9iooKCgoKALC3t79mJSNHR0elx+Ly5ctcvHixQXltbS19+/Zl+vTpvPjii3h5eVFdXc3q1aspKiqipKSE3Nxc7O3tGTNmDNOmTeOdd95h8uTJ3HbbbQCcOXOGr7/+msuXLxMSEsLUqVN55513GD58OOXl5SxZsoTS0tIGj0tdIJo4cSLTp0/n9ddfJzo6Gh8fH0wmE19++SXU9aCsXr0agP79++Pu7o5Go+GJJ57gvffe4+233+btt99m0qRJeHl5UVxczObNmy0e6crV+n79+jF9+nTGjRuHq6srZWVlrF+//rrP7bfw9PRk3LhxeHt7AxAaGsqHH37IjBkzaNGiBR06dMDDwwOj0agM3SosLCQnJweArl274uHh0eCY9RwdHenZs6cSIPbv38+CBQt45513mDhxohL6LJ07d47evXvz9ttv88ILL+Dk5MSlS5eYNm0aJpOJvXv3snDhQnQ6HV26dFE+1z59+pCfn89HH31ETU0NpaWlLFmyhDNnzqDVann88ceZPn0606dP59lnn8XT05OXX36ZV155RRnm9eabbzJjxgymTZumvCf1fvrpJ9566y3l+/Z75ebmMnbsWKZMmUJISAgmk4kffviB2NhYpk2bxpAhQwA4fPgwJSUllrsLIcSfSkKHEOKm92vG89c3SuuXWb2ak5MTjz76KHFxcfTv3x8fHx8AMjMzOXHihHJVXq/X89NPP5Geno6DgwO9evXivvvug7phQhkZGVDXSD5+/DgpKSnKY5WVlXHo0CHlMet16tSJXr16ERsbS7t27WjTpg2xsbEApKWlYTKZSE5ORq/XY29vT2hoKPb29jg5OdGkSROWLFnCv/71Lx5//HFee+01ZT6BXq+3fChUKhVPPPEEcXFxDBw4EFdXVwAOHjzIqVOnLKv/Jo6OjsTGxipDyFxdXUlMTKRjx464urqSkJBAx44dAdixYwdGo5E5c+ZgNpvx9vYmJibmms/laqNGjWLq1KkEBwcr22pqajh37hwrVqxgzZo1DeoDtGnThoEDB9KyZUv69OlD9+7doS6M1NbWsmvXLsrLy7Gzs0OtVnPo0CFSUlKws7NDpVJRXFxMVlYWR44c4ciRIwA0a9aMkSNHEhcXR6tWrbjzzjsJDQ0lLi6O1q1bK4/drl07OnbsSEJCgvKe1Bs/fjw9evQgNjaWtm3bNij7LTw9PenXrx+JiYlKsPH19aVPnz7ExcUxePBg5f9G/fLGQgjxV/n5M7wQQtwktFqtMpm5pqaG6urqBuUVFRXU1NQA4OHhgb+/f4NyGxsbpXGmVquVv1dVVSnzG5588knCw8M5duwYM2bM4JFHHuGee+5hwYIFmM1m5b4gAHl5eaxdu5a1a9eyZcsWAgICCAgIoKioqMHjAkpDvJ6trS0tW7bE1taWc+fOsXnzZr777jsAWrVqRefOnaFuvP+zzz7L9u3badKkCW3atCE+Pv6aBu7VVCqV8tquDmr1Q62sydbWlrZt2+Lg4MDFixdZu3at0ssRGRlJfHy85S4NqFQqevfuzdKlS1m+fDkTJkwgMTFReR3vv/++5S54enri7u4OdcOc6oeqURcg61e8MhqNHD9+XPnMUlNT8ff3JyAggPz8fKqqqpRGe/09X/4XV88psXR1j831guPVoqKiGnxvAdzc3JQhald/3tfrCRJCiD+ThA4hxE3Px8eHdu3aQV0DetOmTUqZ2Wxm3759SgM3MDCQyMhIpZy64UtXN0DrG2harRZXV1dUKhWjR4/m7bffZsKECbz00kvcddddFBYW8umnn2IwGHBwcFCGcMXExPDGG280+DNu3DjlSvvVHBwcLDcxcOBAnJyclKFPBQUFqFQqoqKilCFIBw4coLy8HJVKxZQpU/j444+ZMGHCdedE1DObzcpru7oR6u7urswL+V9c3ci9nv79+9OkSRPKy8tZvHgxOTk5qOrmIfxSQ/706dPKHIrmzZszcOBAxo4dq+x3vSVzL1y4oAy7u3z5MtnZ2UqZnZ0d9vb2qOrmnvTu3fuaz+zZZ58lLi4OV1dX5f3R6/UNAtrV7+nVrvd86l3vParfdvUwt5MnT1732PUshxHyKz4DIYT4q0joEELc9DQaDd27d6dJkybo9Xrmz5+vrND0/fffM3v2bMrKylCr1QwePPiaCbU1NTVMnTqVY8eOsWTJEnJzcwGIiIggNjaW6upqJk2axLFjx3BzcyM8PFwZclU/cTouLo6oqCioayCfOnUKR0dHjEYjP/74I1999dU1j/tz3NzcuP322zGbzezfv5+8vDzs7e0ZOnSoUqf+rtxms5nU1FSOHz/Op59+yoULF646UkNms1l5HV9++aXS8xIfH09ERIRl9d9Mq9UqN1jMz89nxYoVrFu3Tmk4Ozo68uyzz0Lde1RUVIRaraZ///4NjnM9H330EU8//TQrV67k6NGjpKWlsW7dOuV9uHpFrHppaWksX76cjIwMVq1apdwYsUmTJtjb23P77bej1WoxGAwcPXqU/Px8nJ2dqaqqYvv27cybNw93d3fi4uKU3okzZ84wc+ZMjh49ypEjR1i0aBHp6enKY9b3OMyYMYM1a9Zw6NChX+yxUKvVSu9bUVERW7ZsYdu2bWzfvv2GoUMIIW4mEjqEEDc9lUpFt27dGDVqFC4uLuTn5/POO+8wbNgwpkyZQl5eHlqtlnHjxtGzZ0/L3bGxsWHPnj089thjzJgxg7KyMlxcXOjVqxeurq6YTCY2b97MpEmTePTRRxk+fDjLli3DxsaGgIAA7O3tCQoK4t5778XNzY3CwkKmTp3KsGHDePLJJ5k9ezanTp264dVvS+PGjUOtVlNbW4vRaCQoKEiZawJw2223KUOp3n77bR5//HHOnj17w7uqq1QqfvjhBx577DFmzZpFdXU17u7udO7c+Q/p6QgICKBZs2bY2tpy/vx5pk2bxqRJkxq87r59++Li4qL0ENx11103HBJWr7KykoMHD/Lf//6XUaNGMWLECBYuXIhKpcLPz49//OMflrvg5eXFjh07GDZsGB9//DE6nQ5nZ2c+/fRT1Go1rVu3ZtCgQTg6OpKens4rr7zCww8/zHPPPcfixYuVAKfVahkxYgReXl7o9XqWL1/OqFGjeOyxx1i6dCmVlZVQ12vl7++PjY0NGzduZPLkyXz77be/OJ/Czs6Ohx9+GHt7e0wmEy+//DKvvvqqEqiEEKIxsHn99ddft9wohBA3G5VKRVxcHPHx8Tg7O+Pp6Ymfnx8RERF06dKFMWPGcPvttzfYJz8/Hz8/P2JjY3nppZegbh5AVFQUjz76KAMGDFCObWdnh7e3N76+vgQEBBAeHk737t3597//rTTYo6OjiY2NVR4/ICCAsLAwOnbsyIMPPkhUVBS2trZUVlaiVquJjIykc+fO1121ydbWltLSUkJCQoiMjOT5559vMHTK2dmZ5s2bQ93k4Q4dOvDEE0/g5OSEv78/rVu3pkWLFlB3p2w/Pz+ioqKYMGECBoMBT09PIiMjGTlyJHfeeady3IsXLxISEkJ0dLQyf6SkpARXV1diYmJISEjAzs6OqqoqTCYTkZGR3HbbbWg0GlQqFdHR0Wi1Wvz9/QkPDycyMpIePXo0GPJTPyHfxsaGOXPmKMPSbsTHxwdvb2+8vb3x8/MjICCAiIgIunfvzrhx45S5GwArVqygpKSE7t27M3r0aAC8vb2Ji4vjn//8Z4PhdR06dCAsLAxnZ2eaNm2qDL/r2rUrI0aMoFmzZqhUKvz9/enSpQvOzs54eHjg5+dHaGgoHTt2pEOHDmi1WlxcXGjVqhUuLi4EBQURERGhfA5qtZrCwkLl2FeHQ5VKhZeXF87Ozjg5ORESEkK/fv0YMGAAtra2REREkJCQQHBwMCaTicLCQkJDQ2nVqhVxcXFQ10PStGlTWrZsSZs2bdBoNBiNRoqLi4mIiKBr165K75wQQvwV5D4dQohGx2w2U11dTU1NDQ4ODjg5Of2qce5Go5GKigrlpm6WDAYDVVVVyhyO+oa2JZPJRFVVlbLilDUbe1VVVdTW1uLi4vKL8yLqGQwGKisrcXJy+tkb7FnDyZMnycnJYdGiRRw7dow+ffrw3//+17LaDdXPqTAajT/73tbfp2PAgAGMHz8e6ub6ODk5Xfdzpe6zr/9snZycfnYonNlsRqfTodPpsLOzw9nZ+brfgd/DbDZTUVEBdRPf/6jjCiHE34GEDiGEEH+KKVOmsGHDBmWY03vvvUdCQoJltf+ZZej4tWFMCCGE9cicDiGEEH8KT09PgoOD6dy5M2+99dYvLpP7e4WEhBAVFYWfn5/0FgghxN+E9HQIIYQQQgghrEp6OoQQQgghhBBWJaFDCCGEEEIIYVUSOoQQQgghhBBWJaFDCCGEEEIIYVUSOoQQQgghhBBWJaFDCCGEEEIIYVUSOoQQQgghhBBWJaFDCCGEEEIIYVUSOoQQQgghhBBWJaFDCCGEEEIIYVUSOoQQQgghhBBWJaFDCCGEEEIIYVUSOoQQQgghhBBWJaFDCCGEEEIIYVUSOoQQQgghhBBWJaFDCCGEEEIIYVUSOoQQQgghhBBWJaFDCCGEEEIIYVUSOoQQQgghhBBWJaFDCCGEEEIIYVUSOoQQQgghhBBWJaFDCCGEEEIIYVUSOoQQQgghhBBWJaFDCCGEEEIIYVUSOoQQQgghhBBWJaFDCCGEEEIIYVUSOoQQQgghhBBWJaFDCCGEEEIIYVUSOoQQQgghhBBWJaFDCCGEEEIIYVUSOoQQQgghhBBWJaFDCCGEEEIIYVUSOoQQQgghhBBWJaFDCCGEEEIIYVUSOoQQQgghhBBWdUuEjrKyMgoKCiw3NypGo5GcnBxycnLQ6/WWxUII8bdRU1PD+fPnMRgMlkVCCCEaKZXZbDZbbvw9zp49y/LlyykuLsbGxoaQkBAGDBiAl5eXZVWry8jIQKPREBQUBMCuXbvIzs5m+PDhllWtLi8vj2+//ZbnnnvOsoizZ8+yefNmzp49q7xnPXv2xN/f37LqL/r888/JysoiOjqagQMH4urqallFCCGukZqayooVK1CpVDg4OBAcHEz37t1p1qyZZdUGTCYT+/fvJyYm5jefb3Jzc1myZAlPPvkkHh4elsVCCHHTO3jwICtXrmywrWfPnvTs2ZP58+fTq1cvwsLClDK9Xs+HH37IAw88QEhICGazmWXLlqHT6bj//vtxdnZucKyb0R/W01FaWkpWVhYPP/wwDz30EGfOnOGzzz6zrPanWLt2LXv27FH+XVFRQWFhYYM6f5aUlBQuX75suZnMzEwmTpxIVVUV9957LwMGDODy5ct89NFHllV/kU6n4/PPP2fo0KE88MADaLVayypCCHFd58+fB2D06NHcd999lJeXM3bsWE6fPm1ZtQGj0cjMmTM5d+6cZdEvqqmpIS8vT3o6hBCNVl5eHiqVihEjRjB69GhGjx5NfHw8arWalJQUioqKGtQ3Go3s2LGDkpISTCYTixYt4quvvqJbt25oNJoGdW9WNq+//vrrlht/j/z8fA4fPsy9995LYGAg9vb2bNmyhYEDB7JmzRry8vLYv38/WVlZBAUFsWfPHpKSksjMzMTZ2Rk3Nzf0ej0rV66ksLCQnTt3cuzYMTw8PMjNzWXdunWcOnUKPz8/nJycMJlMZGRkkJSUxL59+9DpdHh5eZGZmcny5cu5dOkSOTk5eHt7U1hYyJkzZzCZTCQlJVFYWIifnx/29vbo9XoOHz7Mpk2bOHjwICqVCk9PT2xsbJg+fTphYWG4uLgA8OWXX9KkSRM0Gg0//vgjmzZtIjU1lbKyMkJCQizfEgwGA/PmzWPIkCH4+Pgo23U6HV9//TVhYWE89dRT+Pr64uvrS/v27UlMTMTe3p7jx4+zefNmKioq2L59O35+fpw/f56kpCT27t3LxYsX8fHxwWQysWrVKnbt2oWdnR0AHh4ebNu2TXkPnZyc8PT0BGDRokXodDpSU1PZuXMnZrMZf39/zGYz6enpbN68mb1793Lp0iW8vLxwdHRUnrcQovE5efIkZWVl9O/fHy8vLxISEigvL2fx4sUMHDiQixcvsmHDBn744Qeys7Px8vLC2dmZRYsWsWfPHiorKzlx4gQJCQmcO3eOjRs3smvXLs6fP4+3tzdOTk6YzWaysrJYt24dhw8fxmg0kpmZSbdu3XB2diYjI4NNmzaRkpJCdXU1Xl5e2NnZYTAY2LFjB1u2bKGsrIzU1FRycnIIDw+3fBlCCPG3kpmZSXl5OX369MHLywsPDw+lTbV69Wri4+MJCAhQ6hsMBpYtW0bXrl1JSUnhhx9+4N133yUoKAiVSnXVkW9ef1hPx9X0ej15eXloNBrMZjM7duxg48aNaLVavL292bBhA8nJyQQHB1NVVcWcOXPIz89Hr9eTlJTE7t278fPzo6CggGnTpnHgwAFCQkJIT09n/fr1GAwGsrKyWLRoEfb29gQHB7N582a2bduGu7s7TZo0wcfHh5YtWypX/TMyMrh06RJhYWFs3rxZ6QnZv38/K1euVPb55ptvSE1NhbovRWlpqfK6tm3bRmFhIZmZmUybNg1vb28CAwOvSav1Lly4gNlspmXLlg22V1ZWcu7cOdq3b49KpcJsNlNTU0N1dTW2trZQN/Tqm2++4fjx4wQEBODg4EBGRgZarZbg4GAOHjzI3LlzsbW1VYZBREZG4ufnR1lZGSUlJQQHB2NnZ8fkyZOVq5E7d+5k8eLF1NTU4OrqypQpU7hw4QImk4nTp0/j6upKSEgIqampLF++vMHzFkI0fiqVio4dO3Lx4kWoO1/Z29sTGRlJXl4eX375JZWVlURERODg4EBoaKhyjquqqkKj0RAREcHJkydZunQptbW1VFdXM3v2bHQ6Hb6+vmzZsoX6kb01NTV89NFHGI1GAgMDWbZsGRs2bMBsNrNkyRIWLVqEv78/2dnZLFq0iMOHDzd4vkII8Xd18eJF9u/fz969e9m7dy/5+fmWVa6xYcMG9u/fz3PPPYefn59l8U3tDw0dFy9eZOzYsTz99NMkJydz//33A2Bvb0/Pnj3p168fsbGxHDt2jP79+9O3b18efPBBHBwcyMzMBECj0XDHHXdwxx13cM8992A0GunRowe9evXi9ttvJzc3l5qaGrZs2YJOp8Pe3l5pQB88eBB3d3f8/f0JDw+ne/fuNGnSBIDw8HDuueceevfuTadOncjJycFoNLJ06VIcHR1RqVSYTCbs7e05cuSI8oN4PZWVldTW1ipjnwcNGmRZBYC0tDTCw8NRqxu+zXq9XnnuAIWFhbz33ns888wzvPrqq0o9rVbLiBEj6NWrF25ubtxxxx24urpSWlqKh4cHe/fuxWAwEBcXh1qtpmPHjkRGRhIYGEhiYiIVFRWYTCZ0Oh27du1SjhsXF8d9993H4MGDcXNz4+DBg9jY2NCzZ0+cnZ0pKSnBwcGhwT5CiFtHfY8yQEBAgHIRyNbWlmPHjpGXl0f79u1xcnKibdu2dO/eHZVKRWBgIB4eHhQUFGBjY8Phw4cpLi6mpKQEs9nM8OHD6dOnD0OGDFEea8eOHQAMGTKEfv368eSTT3LkyBH0ej0LFy7kX//6F3fddRePPPKIso8QQtwM8vPzSU1N5eDBgxw8ePBnL1Jf7aeffsLV1fUX59XdjP7Q0OHl5cWkSZN4//33+eyzz+jZsycAjo6OuLu7o1KpMBgM1NbW4ubmBoCTkxPu7u7KnAsnJydlOJOdnR2enp5Kd5SDgwMmkwmTyUROTg4VFRVkZGSQnp7eoPF9Pe7u7sqYOCcnJ2pqajCZTGRlZVFSUkJ6ejrp6elotVrCw8NvGDrat2/P0KFDef3117nvvvtYunSpZRUMBgOZmZkkJCRYFmFra4uDg4OyypSXlxevvvoq//znPzlx4oRSz8vLCwcHB6gb6/fcc8/xxRdfUFBQgNlsVq4gWtq1axejR4/mxIkTVFVV4eDgQHFxsVIeGhoKgI2NDc7OzlRUVFBZWcnEiRNZtGgRhYWFSlgRQtx6CgoKqKmpwWg08tVXXzFr1iwKCgqora2loqLiuucdnU7HrFmzWLBgAcXFxej1esrKyqipqeHcuXM4ODgo53KNRqMMFzh06BC2trbK8FBPT08qKyupqqqitraWqKgoANRqNdHR0Vc9ohBC/L21atWKJ598kmeeeYZnnnmGFi1aWFa5xjPPPENWVhYbN268YVv0ZnT9FvrvZGNjg7u7O1qt9mcb/7a2ttjb21NSUgJ13fElJSV4e3tbVr2h5s2bExsby/PPP89LL73Eiy++yIABA3ByckKtVmMymSx3ua6IiAg6derEuHHjeOmllxg3bhxdu3ZFrVbj7OxMeXk51C27Wz8h3Gg0MmzYMJYvX87kyZP56quvrlmS9/Lly+h0ugZzOeq5uLjQrFkzUlNTG0ykvNGXKy8vj4yMDGbOnMmzzz5Lly5dLKsoVq1axdChQ3n11VcZMWKEMmTrRuondX766ac8/fTTdOnSRWkECCFuHbW1tSQnJ+Pj40NFRQVbt27l2Wef5dlnn6V///4NzllXn2uLi4s5fPgwL774Ik8//TS9e/dGr9djNpsJDAykurpaCSsVFRXK+a59+/bKxSjqrgw6Ozuj0WhwcHDg+PHjULda1tUXZYQQojHy9vZm7NixbNy4kdWrVyvnxsbg+snAijQaDa1bt2bt2rWsXbuWr7/+GoPBQEREhGXVG+rVqxdnzpxh4cKFbNy4kYULF7J7927MZjMhISEcOnSI5OTkX1y16qGHHmL37t188803bNiwgYULFypzOvr06cO3337L6tWr+eKLL5QgdejQIebNm6dMJL96clC9goICTCaTMrzrag4ODvTr14/jx48zY8YM1qxZw5o1a1i1apWyzK8lV1dXPDw8WLJkifKcfk5MTAwpKSmsWrWKL7/8kqqqKssq13B1dcVsNvP111+zatUqkpOTpadDiFvE2bNnSU5OZt26dcyaNYvc3FxeeOEF7O3tCQ0NZdu2baxfv56vv/5aOQ+q1WpCQkLYtm0bW7ZsQaPR4OPjQ1JSEuvXr2fFihXKBQ8PDw9sbW358ssvlfN+vS5duqBWq1mwYAGrVq1i9uzZtGvXDjs7O5544glmzpzJ999/z9y5c7GxsWk0EyqFEI3f2bNn2bp1K8nJySQnJ5Oeno7JZKK6uprdu3fz/fff8/3337N161bKysqgbl5dXFwcY8aM4ZtvvmHlypWNJnj8YatXGY1G1Go1LVq0uObKenV1Nc2bN8fd3R21Wk3z5s1xdXXlzJkzNGnShEGDBuHr64tKpaKmpobw8HBcXFyUoVQRERE4OjpiNBqVH8GmTZsSHR1NSUkJFy5coGnTprRq1QqtVkuzZs2ora3l/PnzBAcHo9FocHFxoXnz5lA3p6J+QnZAQADBwcFcvHiRoqIiAgMDadmyJU5OTsTGxirDCXr27IlWq6Vly5bKilgFBQVoNBpGjBiBr69vg9d84MAB1Go1HTp0uOZHUqVS0aRJE+Lj4zGZTFy4cAGdTke7du0YMmQIGo0GvV6PRqMhJiYG6oaodejQgXPnzmFnZ0ffvn2xs7NTfpwrKytJTEzEwcGBqKgo7O3tKSwsJDY2lvDwcEJCQggODqayspLo6GhlNauKigoiIiIICwsjMjKSrKwsbG1tSUxMxMvLi1atWjV47kKIxkWv11NSUkJ5eTm1tbW0aNGCQYMGERQUhJ2dHZGRkZSUlFBRUUG3bt3w9fUlJiYGNzc3wsLCyM/P59KlS3Tu3Jnw8HAKCgqorq6mW7dueHl5KQt6REVFKWW9e/dGq9XSokULNBoN0dHRFBQUcPnyZfr160fnzp2xtbUlOjoaX19fzp49S0xMDKdOnSI0NJR27dpZvgwhhPhbqa2tVc6dxcXFFBcX4+LiQlBQECUlJRiNRsrLyykrK1MumJtMJtq2bYubmxu+vr7Ex8eTmZmJj4+PMi3hZvaH3RxQNLRp0yb8/f2Ji4uzLBJCCPErFRQUYGdnR0VFBY899hizZ89WLiAJIYS4eUjoEEII8bf15ptv4uzsTH5+PrGxsQwbNuya3mMhhBB/fxI6hBBC/G0VFhZSWVmJo6PjdRfmEEIIcXP40yeSCyGEEL9W06ZNCQ4OlsAhhPhT5OXlkZqa+qtXQf2j1dTUsHXrVhYsWIDBYGD9+vXKSqq/V1JSEnl5eZab/3Q3Teioqalh6tSppKWlcfHiRd566y02btyofClqa2tZt24db775puWu16iqquLs2bMNln609P333/POO+9Ybv5d0tPTefzxxxk1ahRFRUU8+uijZGdnW1b7WSaTiVOnTlFTU6NsW7ZsGTNmzPjL/lMIIf5cBoOBWbNmNbhpp8FgYPHixUyfPr1B3YKCAurXCDEYDD97Y72CggKeeOIJy81/ubKyMjZu3MicOXOYM2cO33//vbJk+e9hMpnYv38/8+fPZ/bs2XzzzTekp6cDsGbNGt588005lwohAFi6dCmVlZWo1WpGjx7Npk2bLKtY1dKlS/nuu++Uf6empv6m1UT1ej0zZ85scCNCZ2dn5s2b95evgnXThI49e/YoK1mVlpaydu1adu7cqdwfo6ioiOTkZDZs2GC56zWysrKYP3/+DZNj586dlTuq/682bNhA27Zt+fjjj2nSpAnjxo37TVftdDodb731FhcuXFC29evXjyNHjvym8CKEuHnl5+dz+vRp2rdvr2w7deoUO3fuZMWKFb+4PPj1uLm58fzzz1tu/ksZDAZWr17Nvn37CAsLIywsjOLiYiorKy2r/mrbtm3jww8/xMvLi6ioKFQqFWlpaQDcfffdZGVlcerUKcvdhBC3mHPnzpGTk0NsbKxlUQP1F4OPHj1KcXFxg/usFRcXk5qayvnz58nLyyM/Px/qwsCZM2dITU3l9OnTDS4k1zt58iT79++nRYsWJCYmYmNjw+DBg3F1daW2tpbDhw9z+fJlTpw4QUlJCQaDgdOnT3P48GFOnz6NXq8nJyeHdevWsW/fPo4cOUJlZSWdO3emvLyckydPWj7kn+oPWzLX2t544w3uvPNOIiIiKCwsJCkpiZYtW+Lh4UFAQADHjh0jMzOTyspKhg4dCnVX8ebNm8eCBQtITU0lODgYNzc3PvjgA1JSUti1axe7d++mdevWfPnll1RXV/PRRx+h0+koKiri4MGDxMfHYzab2bJlC5988gmrVq2ioKCANm3acPbsWWbNmsWiRYvYu3cv7u7u+Pv7N3jes2fPZvXq1eTk5JCVlUVCQgIzZsygdevWyl3GXV1d+fjjj1GpVDg5OfHBBx+wZMkSdu/eTdOmTdm/fz8bN27kxx9/ZMeOHfj6+hIcHExeXh7FxcW/+J9DCHHze/fddwkICKBz587Ktu3bt+Pv749WqyUrK4vExESo6809cOAAPXr0wGQysWrVKgYNGnTV0a4oLS3ls88+o3fv3uzbt4/Jkyej0+n45JNPOHr0KF26dPnZSds7duxg5syZrFu3jtraWuVu4bNmzSIqKop3332X5cuXYzabiYyMhLrl07/44gvmz5/Pnj17CA4OvuZeRpWVlXz99df07t2b3r17ExoaSqtWrXB1dQXg2LFjfPjhhyxbtoy0tDSaNWuGm5sbZrOZzz//nAULFrBmzRpKSkpo2bIlarWaSZMm4e/vz3PPPUdISAixsbGEhYVhY2MDQHl5OZmZmcTHx//s6xVCNH5LlizBycmJHj16oFKpWL16NS1btiQ8PFypYzAYmDdvHt999x05OTkkJSURHR2Nh4cHp0+f5r333iM7O5sjR46QlJSEnZ0dERERrFmzhmXLlpGfn89PP/2Evb09wcHBDR5/69at7Nu3j9raWuzs7IiNjWXatGm0a9cOvV7PuHHjOH/+PCdOnMDHx4ddu3axfPlyLl68yJ49e3BzcyMvL4/t27djZ2fH5cuXCQ4OxtXVlVOnTlFdXa3ciuGvcFP0dJSWlnL8+PEGjWtHR0fCwsI4fvw4RqOR1NRUIiMjlZv0lZeXM3PmTNzd3XnttdeIjIxUGvaDBg0iISGBN954gwkTJlBTU8OhQ4f47rvveO655+jevTuFhYXk5uZC3fK3n376KQ888AD/+c9/CA0NBeC7777Dw8ODyZMnM2zYsGtuEAgwfPhwEhISuOeee3jxxRfRarWkpaWh0+kwGAwcOXKE5ORkxowZQ3x8PO+//z5NmzZl4sSJPPTQQ6hUKnr27EmzZs34z3/+wxtvvKG8D5GRkeTm5sqwACEaOZPJRHJyMj179lS2VVVVKfetmDBhAhkZGRiNxgb7/RK9Xq8MMyotLeXIkSNUV1fz8ssvk5GR8bNDTDMzM3nllVe4//77GT16NHPnzlWGfWVnZzNy5EjuvvtuRowYwaefforBYMBkMvHee++h0+l4+eWX6d69O+PHj29whZC6c3uLFi1Ys2YNe/bsoby8vME5TqPRMHz4cCZNmqTcMFWv10Ndz824ceMYO3YsO3bsUG5CeMcdd5CRkcHatWspLCykpqYGOzs75ZhdunS55nGEELeen376icjIyBtefNi/fz+7d+/m3Xff5fXXX6dVq1Z89tlnGAwGtmzZQmRkJBMnTuSJJ55Q7sVRXV3NkSNHGD58OC+99BITJ06kS5cuAJjNZuU8+MADDxAdHc3dd9/Nww8/jEqlori4GKPRiNFopKCggPj4eMaPH0+bNm344YcfGDlyJC+//DJTp06lffv29OjRA1dXV0aNGsU//vEP5WJ4UFAQ58+f/0uHWN0UoaN+2MDVV8RUKhXR0dFkZ2dTXFzM8ePHG9zI7syZM5SVldG0aVMyMzNxcnIiOzubsrIyNBoNDg4OuLm5KTdbsbW1ZcKECYSEhODu7q4cp7q6mp07dzJmzBg6duxIUFAQ3bp1A1B+tIqLi/Hz86Nly5ZUVVWRmZlJRkYGly5dUh7LyckJV1fX636RR4wYQVhYGE2aNMHe3h6VSsXly5cJCQmhdevWODo6Ymtri1arxd3dXXlcNzc3SktLf9Udx4UQNy+z2YxKpWpwVaygoIALFy4QGhqqXPDYt2/fVXtdKzc3l4yMDE6ePKnc/fZqKpWKRx99lGbNmjFq1CiSk5MBuHDhAhkZGZw5cwa9Xs+nn37KgAED6Ny5M61bt2b48OF88MEHynFeeOEFWrduTYcOHfD09CQ3N5esrCxOnjxJSEiIchNSlUp1zTBXOzs7BgwYQHh4OIsWLeLpp59mypQpXLhwAZVKhYeHB6WlpRw6dAgbGxtOnz7NpUuXUKlUtG3blpMnT5KWlkbnzp3Jzs7GZDLxyCOP8OCDD5KcnMwLL7zA888/z/79+5UfepVKhcFguOE8PyFE41deXo6zs7Pl5gbOnz9PQkICzs7OqFQq4uPjOXz4MBUVFeTm5tKmTRtUKhVeXl60aNECtVqNnZ0dgYGBbNq0idWrV3P06FFqamo4e/Ysa9asYc2aNWRkZPzihQ9HR0fatm2r/DsiIoJ169axdu1ajhw5olyAuR6NRkN1dfVvvjj1R7opQkd9Q93yilhQUBA2NjbMmTOHwMBA/Pz8lLLKykrKy8u5dOkSeXl5XL58mYEDB1630Q/g4uKCk5OT5WZqamqorq5u0LVW784778TBwYE1a9bw3nvvsXfvXoqKitiyZQtJSUmkpaX9qg83ICBA+fvo0aOxtbVl9erVTJ06lR9//LFB3auZTCbUavXPviYhRONy9fnkxx9/JC8vj3nz5vHf//6XkpISMjMzrzlPXu3AgQMkJSWxefPmBnPErqdp06bK348ePUpSUhI//PADVVVV6HQ6OnXqpJS3b98eg8GgPPbVP4oqlYqSkhKKioq4fPmyck7Oy8ujf//+qNXX/gwFBATw3HPPMXXqVF599VWqq6tZv349tbW1zJ07lx07dlBdXY3JZKKqqoqamhr0ej0ff/yxMq7Z8ndj+PDhTJ06lcmTJ9OlSxe++eYbuWAjhGhAq9VSUVFhufkaV7e7rj7XWJ5/68scHBwYPHgw3bt3p6KigkWLFrF582alB8NoNP5i4KDueA4ODsq/H3nkEbp3705paSmzZ89WLhRdT2VlJU5OTsqw0r/CtWf7vyEfHx/UajUXL15ssN3BwYHOnTuTlJRE3759G3wJ6nsF7r33XoYOHar80Wq1DY5RT6VSXbfx7uTkhIuLC0eOHLEsonnz5gwfPpwxY8bQoUMHNmzYgKenJyNGjGDkyJF06tQJW1tby92ucfXjhoWF8eijj/LUU08RExPDihUrrvnxrFdSUoKHhwcajabBdiFE41LfMK8fCmUymVi4cCEDBw6kd+/e3H777dx9990cOHBAWVzjevr168fIkSOV3tVfq1u3bowcOZLBgwej1WpxdnZm/fr1SvnmzZuxs7NTzlXXCxI+Pj64ubkxcODABudkFxcXy6oKNzc3WrRoQVhYGGfPnqWmpoZTp07x0EMPcf/999OrVy8l7GRnZ1NbW8sjjzzC4MGD8fT0vOacqdFoaN68Offccw8Gg0G5KqjX67G1tf1V52shROMVFxdHVlaW5eYG/Pz8OHToENXV1ZjNZg4fPkxsbCwuLi4EBgZy7NgxzGYzRUVFSu+FyWTCzs6OLl26MGTIENq0aUNGRgb+/v4MGjSIQYMGKb0iv4WNjQ233XYbQ4cOJSoqisOHD2Nra4tarb5mGFVeXh6+vr7Y29s32P5n+m2v7i/i4uJC+/btOXr0qGURvXv3ZseOHQ2urAGEhobi5+fHRx99xP79+9m1axeff/451B2vpqaGw4cPk5mZ2WA/Sw4ODtx5550sW7aMNWvWkJKSoqyQ9e2337Jr1y7S09NJTU3Fx8cHR0dHXFxc0Gq1DdLor/Xhhx+yZ88eTpw4weHDhwkMDMTBwQEfHx82btxIenq6MiwiLS2NkJCQ64YlIUTjoVKpeOCBB9i+fTvUDZOys7Nj6NChJCYmkpiYSP/+/XF1db3hKlYajQatVouLi8tvamA7OjoqYUOtVvP8889z7NgxVq9eTVJSEsnJyUycONFytwaaN29OYmIi06dPZ9++faSkpPDZZ59d0xtcUVHBZ599xvLlyzl06BAbN27kp59+YsCAAcqP6ebNmzlw4ABz5sxRzn9BQUFUVlayY8cONm3axDfffKOUvfDCC3zxxRfKAiKvvPIKgYGByuT0LVu24O7u/pdeARRC/PXuu+8+srKylN4Oe3t7Vq5cyauvvsqrr77K22+/ja+vL3FxcTzzzDNMmDCBnTt38tRTT2FnZ0evXr348ccfmTRpEjNnzqS4uBh7e3uqqqqYOnUqr732GlOmTGHz5s0kJiZeNwBoNJoGc85cXFxQq9Wo1eprhum/+OKLjB8/njfeeINdu3bRt29fbG1t6dKlCzNnzmTOnDnk5eVhMpnIzc1VFvz4q9w0q1d5e3uzc+dOOnXqhEqlwmQyER8f3+BHwmQyYTAYaNeuHXZ2dsTFxVFTU8PRo0cpLCwkPDyc0NBQnJ2dcXR0JDU1lbNnz9KuXTvMZjPR0dHK8WpqanB3dycyMpKgoCCCg4NJT08nJycHb29vwsLCKCkp4cSJE5w5c4awsDDuueee6/Y6VFdX06xZM2UyT1lZGfHx8Tg5OVFdXd2gR6S0tJTMzExyc3OJjY3lgQcewMHBgbCwME6dOkVWVha+vr6oVCoWLlzII488ovxwCiEar+joaJKSkujUqROHDx/G39+/wcUWBwcH7OzscHNzo0mTJhgMBiIiIqCuW71169ZXHe0Kk8mEXq9XVkaxt7dXVseq7+7v0KGD5W64uroSFxfHiRMnKCwsZNCgQcpSvlVVVURFRSnn0oqKClq2bImbm5sy1vnIkSPk5eURFBREdHR0gx9RGxsbHBwcyMnJ4fjx45SXl9O7d2/i4+NxdHQkJiaGU6dOce7cOTp16kRAQAAtWrTAzc0NZ2dn0tLSMJlMPPXUU9ja2hIeHk5QUBCFhYVkZGRw4cIF4uPjefDBB3F0dMRgMDBz5kyeeuopZY6fEOLW5OrqSnp6Oo6OjgQGBhIYGEhMTAyRkZFERkYSERFBs2bN6NatG1FRUYSFhTF48GACAwNR1c05S0xMxMvLi4SEBPLz82nRogURERG0bt2aoKAgQkJCGDRoEC1btrR8eABlhdL69mRgYCABAQE4OjoSHh5Os2bNlB6RxMREAgMDCQ8PZ9iwYco5PyEhgWbNmuHj44O/vz9paWlkZmZy7733Ngg0fzaV2bL/+W/KYDCwYMECevTo8ZuGBTRW69evp7S0lCFDhkhPhxC3AKPRyMqVKwkNDSU+Pt6yWPxOW7du5fTp04wePVrOpUIITp8+rSwt+1vPCSdPnmTbtm24ubmRnZ1NQUEBL774Ir6+vpZV/1R79uzBy8tLCSV/lZsmdFB3VU71M3MvbjXyXghx67l6tSXxx6ifvPlbx1ILIRovc92Kgb9VdXU1Bw8e5OTJk3h4eNClS5cGi3L8VX7v6/mj3VShQwghhBBCCHHzkUs7QgghhBBCCKuS0CGEEEIIIYSwKgkdQgghhBBCCKuS0CGEEEIIIYSwKgkdQgghhBBCCKuS0CGEEEIIIYSwKgkdQgghhBBCCKuS0CGEEEIIIYSwKgkdQgghhBBCCKuS0CGEEEIIIYSwKgkdQgghhBBCCKuS0CGEEEIIIYSwKpXZbDZbbhTXd/o0rF4Nubng7Q19+kDbtqBSWdYUQohbU24urF0LJ09CkyZw++3QubNlLSGEuHWdOAHr1kFeHgQFQd++EBPT+NuTEjp+hdJSmDYN3n0XjMb/3+7oCCNHwuuvg4/P1XsIIcStRaeDL76ACROgqKhhWZ8+MHfulR/Xxv6jKoQQP6egAMaPh3nzwGT6/+3OzvDPf8K//w3u7lfv0bhI6PgFxcXw2mswfz7o9ZalV35AH3zwyg+qVmtZKoQQt4bp06+cKw0Gy5IrOne+EkoiIy1LhBCi8btwAV54AZYtaxg46qnV8MQT8MEH4ORkWdo4yJyOGzCbYceOK1+Q6wUO6uqsWHEllAghxK3ozBmYNOnnAwdASgp8//2N6wghRGNkMsGmTVeGVF0vcFBX5/PPr5wnGyvp6bgBvf5KKv34Y8uSa0VHm/nxRx1qiXFCiFvMvfc6kJT0yyc/X1/Yv19H06bysyOEuHVUVMCTT9rz/fc2lkXX6NQJdu9unENRJXTcgE4Hd98NmzdbllxPPhAPnLMsEEKIRi4diLLc+DMCgDzLjUII0Yg1ATYDbS0LrtG8OezfD02bWpbc/CR03IBOB4MHw/r1liXXcnGp5PHHP8bevtiySAghGrX581+kqMjLcvM1VCoYM+YtXFzKLYuEEKLRqqnR8O23/+DcOV/LomuEhcGBA+DhYVly85PQcQMGA7z6KrzzjmXJtTp0gF27TNj8cs+ZEEI0KmPGqJkzx3LrtVq3hi1bTI3yx1QIIX5OZSU884yKr7765TFTd90Fa9ZcmVje2Ejo+AWbNsHQoVdWsfo5avWVyT+PPmpZIoQQjZ9eDxrNjSeJq1QwZw6MHt04xyoLIcSNLF9+5fxXfoOOXrX6yuiavn0tSxqHRpij/lhdusBTT11ZQ/l6nJ1h1Ch45BHLEiGEuDXY2cEnn4DXz4ywsrGBQYOgd28JHEKIW9Ptt19pKzo4WJZc4eoKY8deua9RY2Xz+uuvv265Ufw/e/srdx3387tyU5eCgivLmqlUEBv7/zdz0Wgs9xRCiFtHbOyVm/9dvnzlruRm85XzZFgYPP44vPTSlb8LIcStyMkJ2rW7MkE8P//KTVRNpiu9G/HxVwLH88//fChpDGR41a9kNF4JHHl5cPEieHuDvz94ejbuL4gQQvxaBgOUlkJhIWRlQZMmEBh4pQfE0dGythBC3Hr0+v9vT166dKUt6ed3pT1pZ2dZu3GR0CGEEEIIIYSwKpnTIYQQQgghhLAqCR1CCCGEEEIIq5LQIYQQQgghhLAqCR1CCCGEEEIIq5LQIYQQQgghhLAqCR1CCCGEEEIIq5LQIYQQQgghhLAqCR1CCCGEEEIIq5LQIYQQQgghhLAqCR1CCCGEEEIIq5LQIYQQQgghhLAqCR1CCCGEEEIIq5LQIYQQQgghhLAqCR1CCCGEEEIIq5LQIYQQQgghhLAqCR1CCCGEEEIIq5LQIYQQQgghhLAqCR1CCCGEEEIIq/o/Gw3R/zFzrqsAAAAASUVORK5CYII=;" vertex="1" parent="1">
          <mxGeometry x="232" y="450" width="387" height="68.95" as="geometry" />
        </mxCell>
      </root>
    </mxGraphModel>
  </diagram>
</mxfile>
